# AST/ASF file generated using VICON BodyLanguage
# -----------------------------------------------
:version 1.10
:name VICON
:units
  mass 1.0
  length 0.45
  angle deg
:documentation
   .ast/.asf automatically generated from VICON data using
   VICON BodyBuilder and BodyLanguage model FoxedUp or BRILLIANT.MOD
:root
   order TX TY TZ RX RY RZ
   axis XYZ
   position 0 0 0  
   orientation 0 0 0 
:bonedata
  begin
     id 1 
     name lhipjoint
     direction 0.584852 -0.759097 0.285867 
     length 2.43633 
     axis 0 0 0  XYZ
  end
  begin
     id 2 
     name lfemur
     direction 0.34202 -0.939693 0  
     length 7.14704  
     axis 0 0 20  XYZ
    dof rx ry rz
    limits (-160.0 20.0)
           (-70.0 70.0)
           (-60.0 70.0)
  end
  begin
     id 3 
     name ltibia
     direction 0.342022 -0.939692 0   
     length 7.68483   
     axis 0 0 20   XYZ
    dof rx
    limits (-10.0 170.0)
  end
  begin
     id 4 
     name lfoot
     direction 0.0999605 -0.274639 0.956337   
     length 2.40452   
     axis -90 7.62852e-016 20   XYZ
    dof rx rz
    limits (-45.0 90.0)
           (-70.0 20.0)
  end
  begin
     id 5 
     name ltoes
     direction 1.53468e-011 -4.21881e-011 1   
     length 1.19837   
     axis -90 7.62852e-016 20   XYZ
    dof rx
    limits (-90.0 20.0)
  end
  begin
     id 6 
     name rhipjoint
     direction -0.569886 -0.769002 0.289597   
     length 2.40495  
     axis 0 0 0  XYZ 
  end
  begin
     id 7 
     name rfemur
     direction -0.34202 -0.939693 0   
     length 7.45086   
     axis 0 0 -20   XYZ
    dof rx ry rz
    limits (-160.0 20.0)
           (-70.0 70.0)
           (-70.0 60.0)
  end
  begin
     id 8 
     name rtibia
     direction -0.34202 -0.939693 0   
     length 7.76831   
     axis 0 0 -20   XYZ
    dof rx
    limits (-10.0 170.0)
 end
 begin
     id 9 
     name rfoot
     direction -0.0798572 -0.219406 0.97236   
     length 2.35911  
     axis -90 -7.62852e-016 -20   XYZ
    dof rx rz
    limits (-45.0 90.0)
           (-20.0 70.0)
  end
  begin
     id 10 
     name rtoes
     direction -1.53469e-011 -4.21728e-011 1   
     length 1.18261   
     axis -90 -7.62852e-016 -20   XYZ
    dof rx
    limits (-90.0 20.0)
  end
  begin
     id 11 
     name lowerback
     direction 0.0242088 0.999437 0.0232389   
     length 2.1561   
     axis 0 0 0   XYZ
    dof rx ry rz
    limits (-20.0 45.0)
           (-30.0 30.0)
           (-30.0 30.0)
  end
  begin
     id 12 
     name upperback
     direction -0.0356893 0.999013 -0.0264323   
     length 2.14431   
     axis 0 0 0   XYZ
    dof rx ry rz
    limits (-20.0 45.0)
           (-30.0 30.0)
           (-30.0 30.0)
  end
  begin
     id 13 
     name thorax
     direction -0.0472163 0.998194 -0.0371284   
     length 2.16169   
     axis 0 0 0   XYZ
    dof rx ry rz
    limits (-20.0 45.0)
           (-30.0 30.0)
           (-30.0 30.0)
  end
  begin
     id 14 
     name lowerneck
     direction 0.00863244 0.999921 0.00911972   
     length 1.58651   
     axis 0 0 0   XYZ
    dof rx ry rz
    limits (-20.0 45.0)
           (-30.0 30.0)
           (-30.0 30.0)
  end
  begin
     id 15 
     name upperneck
     direction 0.149523 0.979068 -0.138086   
     length 1.57486   
     axis 0 0 0   XYZ
    dof rx ry rz
    limits (-20.0 45.0)
           (-30.0 30.0)
           (-30.0 30.0)
  end
  begin
     id 16
     name head
     direction 0.0445219 0.997708 -0.0509576  
     length 1.6019  
     axis 0 0 0   XYZ
    dof rx ry rz
    limits (-20.0 45.0)
           (-30.0 30.0)
           (-30.0 30.0)
  end
  begin
     id 17 
     name lclavicle
     direction 0.911271 0.381667 -0.154644  
     length 3.80848  
     axis 0 0 0   XYZ
    dof ry rz
    limits (-20.0 10.0)
           (0.0 20.0)
  end
  begin
     id 18 
     name lhumerus
     direction 1 -4.49003e-011 2.1308e-027   
     length 5.19069   
     axis 180 -30 -90   XYZ
    dof rx ry rz
    limits (-60.0 90.0)
           (-90.0 90.0)
           (-90.0 90.0)
  end
  begin
     id 19
     name lradius
     direction 1 -4.48914e-011 4.01554e-027   
     length 3.30016   
     axis 180 -30 -90   XYZ
    dof rx
    limits (-10.0 170.0)
  end
  begin
     id 20
     name lwrist
     direction 1 -4.49003e-011 1.1934e-026   
     length 1.65008   
     axis -8.46377e-015 90 90   XYZ
    dof ry
    limits (-180.0 0.0)
 end
  begin
     id 21 
     name lhand
     direction 1 -4.49034e-011 2.38659e-026   
     length 0.707698   
     axis -1.52313e-014 90 90   XYZ
    dof rx rz
    limits (-90.0 90.0)
           (-45.0 45.0)
  end
  begin
     id 22 
     name lfingers
     direction 1 -4.48691e-011 4.77775e-026   
     length 0.570564   
     axis -3.04623e-014 90 90   XYZ
    dof rx
    limits (0.0 90.0)
  end
  begin
     id 23
     name lthumb
     direction 0.707107 -6.34832e-011 0.707107   
     length 0.819219   
     axis -90 45 -1.62303e-014   XYZ
    dof rx rz
    limits (-45.0 45.0)
           (-45.0 45.0)
  end
  begin
     id 24 
     name rclavicle
     direction -0.815579 0.573708 -0.0754329   
     length 3.54371  
     axis 0 0 0   XYZ 
    dof ry rz
    limits (-10.0 20.0)
           (-20.0 0.0)
  end
  begin
     id 25 
     name rhumerus
     direction -1 -4.48956e-011 3.05351e-028  
     length 5.23924   
     axis 180 30 90   XYZ
    dof rx ry rz
    limits (-90.0 60.0)
           (-90.0 90.0)
           (-90.0 90.0)
  end
  begin
     id 26 
     name rradius
     direction -1 -4.49013e-011 3.53849e-027   
     length 3.32953   
     axis 180 30 90   XYZ
    dof rx
    limits (-10.0 170.0)
  end
  begin
     id 27 
     name rwrist
     direction -1 -4.48901e-011 1.19374e-026   
     length 1.66477   
     axis -8.46377e-015 -90 -90   XYZ
    dof ry
    limits (-180.0 0.0)
  end
  begin
     id 28
     name rhand
     direction -1 -4.48877e-011 2.38764e-026   
     length 0.607414   
     axis -1.52313e-014 -90 -90   XYZ
    dof rx rz
    limits (-90.0 90.0)
           (-45.0 45.0)
  end
  begin
     id 29
     name rfingers
     direction -1 -4.48882e-011 4.77521e-026   
     length 0.489712   
     axis -3.04623e-014 -90 -90   XYZ
    dof rx
    limits (0.0 90.0)
  end
  begin
     id 30
     name rthumb
     direction -0.707107 -6.34974e-011 0.707107   
     length 0.703132   
     axis -90 -45 1.62303e-014   XYZ
    dof rx rz
    limits (-45.0 45.0)
           (-45.0 45.0)
  end
:hierarchy
  begin
    root lhipjoint rhipjoint lowerback
    lhipjoint lfemur
    lfemur ltibia
    ltibia lfoot
    lfoot ltoes
    rhipjoint rfemur
    rfemur rtibia
    rtibia rfoot
    rfoot rtoes
    lowerback upperback
    upperback thorax
    thorax lowerneck lclavicle rclavicle
    lowerneck upperneck
    upperneck head
    lclavicle lhumerus
    lhumerus lradius
    lradius lwrist
    lwrist lhand lthumb
    lhand lfingers
    rclavicle rhumerus
    rhumerus rradius
    rradius rwrist
    rwrist rhand rthumb
    rhand rfingers
  end

#!OML:ASF E:\VariousWalksJay\Project 1\Capture day 1\Session 1\Actor2.ASF
:FULLY-SPECIFIED
:DEGREES
584
root 9.1654 16.7986 41.2337 175.13 -53.8415 -172.165
lowerback -0.614172 0.576897 5.7852
upperback 4.40572 0.491685 -0.332634
thorax 4.98055 0.443786 -3.56809
lowerneck -9.28683 0.292313 0.557854
upperneck 6.38986 -0.606973 8.61394
head 3.82559 0.0305256 2.77222
rclavicle 1.03766e-013 -2.66371e-014
rhumerus -41.5801 7.0748 -86.1465
rradius 42.1603
rwrist -0.477208
rhand -11.3856 -2.25422
rfingers 7.12502
rthumb 14.649 -31.7168
lclavicle 1.03766e-013 -2.66371e-014
lhumerus -32.6186 -15.0326 82.9163
lradius 32.7426
lwrist 7.9316
lhand -6.60592 -9.80207
lfingers 7.12502
lthumb 19.2498 19.2652
rfemur -9.88236 -6.02587 25.4325
rtibia 32.4951
rfoot -25.061 -17.9213
rtoes -3.20858
lfemur -10.2446 3.00927 -13.9849
ltibia 29.4676
lfoot -19.7767 0.185054
ltoes -6.25356
585
root 9.16401 16.7992 41.2342 175.109 -53.8102 -172.123
lowerback -0.601845 0.575943 5.83119
upperback 4.39452 0.490564 -0.337506
thorax 4.96259 0.444586 -3.59918
lowerneck -9.2429 0.305297 0.586423
upperneck 6.38085 -0.591139 8.60893
head 3.81257 0.0373958 2.7652
rclavicle 6.34123e-014 5.56597e-015
rhumerus -41.5745 7.03372 -86.1609
rradius 42.1394
rwrist -0.520917
rhand -11.1616 -2.3002
rfingers 7.12502
rthumb 14.8648 -31.7469
lclavicle 6.34123e-014 5.56597e-015
lhumerus -32.6176 -14.9245 82.8869
lradius 32.6983
lwrist 7.86607
lhand -6.63941 -9.82699
lfingers 7.12502
lthumb 19.2176 19.2435
rfemur -9.8978 -5.97558 25.455
rtibia 32.4877
rfoot -25.0678 -17.8882
rtoes -3.02721
lfemur -10.255 3.06696 -13.9561
ltibia 29.4763
lfoot -19.7667 0.166485
ltoes -6.36506
586
root 9.16185 16.7992 41.2334 175.145 -53.806 -172.177
lowerback -0.606505 0.589888 5.80489
upperback 4.40832 0.509352 -0.348132
thorax 4.98145 0.453775 -3.59447
lowerneck -9.28673 0.280145 0.529316
upperneck 6.41716 -0.627726 8.66481
head 3.83738 0.0219578 2.79479
rclavicle -2.6339e-014 1.78906e-014
rhumerus -41.5689 6.95136 -86.1581
rradius 42.1264
rwrist -0.498532
rhand -11.4308 -2.27183
rfingers 7.12502
rthumb 14.6055 -31.7375
lclavicle -2.6339e-014 1.78906e-014
lhumerus -32.5918 -14.8865 82.8948
lradius 32.6784
lwrist 7.85098
lhand -6.7642 -9.75775
lfingers 7.12502
lthumb 19.0976 19.3246
rfemur -9.87711 -6.01332 25.4139
rtibia 32.4813
rfoot -25.0498 -17.8717
rtoes -3.17843
lfemur -10.2412 3.05447 -13.9989
ltibia 29.4816
lfoot -19.7924 0.22429
ltoes -6.5324
587
root 9.16083 16.7998 41.2329 175.086 -53.7737 -172.091
lowerback -0.612848 0.607983 5.85266
upperback 4.42384 0.528966 -0.322998
thorax 5.00433 0.465447 -3.594
lowerneck -9.30635 0.277908 0.502449
upperneck 6.39421 -0.626499 8.67447
head 3.8335 0.022211 2.80305
rclavicle 3.37934e-014 -1.43125e-014
rhumerus -41.5496 6.90878 -86.1413
rradius 42.1178
rwrist -0.442038
rhand -11.4753 -2.31057
rfingers 7.12502
rthumb 14.5626 -31.7794
lclavicle 3.37934e-014 -1.43125e-014
lhumerus -32.5348 -14.8189 82.9184
lradius 32.6397
lwrist 7.82378
lhand -6.76645 -9.78531
lfingers 7.12502
lthumb 19.0954 19.2973
rfemur -9.86703 -5.90336 25.4852
rtibia 32.4578
rfoot -25.0574 -17.9573
rtoes -3.17085
lfemur -10.2559 3.08097 -13.9347
ltibia 29.5024
lfoot -19.7907 0.190603
ltoes -6.43115
588
root 9.15985 16.7985 41.2319 175.051 -53.7571 -172.057
lowerback -0.603294 0.609511 5.87685
upperback 4.42213 0.531259 -0.33159
thorax 4.99796 0.467562 -3.61652
lowerneck -9.26874 0.274726 0.541649
upperneck 6.39378 -0.634382 8.66486
head 3.82573 0.0177939 2.79126
rclavicle 2.98177e-015 -1.98785e-015
rhumerus -41.5646 6.87259 -86.19
rradius 42.0976
rwrist -0.410219
rhand -11.3044 -2.38697
rfingers 7.12502
rthumb 14.7272 -31.8438
lclavicle 2.98177e-015 -1.98785e-015
lhumerus -32.5401 -14.7648 82.8923
lradius 32.616
lwrist 7.81308
lhand -6.66875 -9.85705
lfingers 7.12502
lthumb 19.1894 19.2163
rfemur -9.85694 -5.93921 25.5017
rtibia 32.4517
rfoot -25.0334 -17.9186
rtoes -3.20469
lfemur -10.2434 3.0743 -13.9085
ltibia 29.5104
lfoot -19.7882 0.176795
ltoes -6.26435
589
root 9.15872 16.7991 41.2312 175.007 -53.7273 -171.989
lowerback -0.615481 0.724151 5.97834
upperback 4.39764 0.686679 -0.418885
thorax 4.99988 0.551375 -3.75668
lowerneck -9.15268 0.19526 0.852411
upperneck 6.3366 -0.77343 8.6145
head 3.78536 -0.0514872 2.70401
rclavicle 9.64106e-015 1.66979e-014
rhumerus -41.672 6.43009 -86.2493
rradius 42.1068
rwrist -0.370694
rhand -11.3786 -2.39361
rfingers 7.12502
rthumb 14.6558 -31.8557
lclavicle 9.64106e-015 1.66979e-014
lhumerus -32.5463 -15.1472 82.8613
lradius 32.632
lwrist 7.88642
lhand -6.67042 -9.85272
lfingers 7.12502
lthumb 19.1878 19.2207
rfemur -9.85815 -5.88074 25.5525
rtibia 32.4338
rfoot -25.0501 -17.945
rtoes -3.12011
lfemur -10.2456 3.06858 -13.8628
ltibia 29.5232
lfoot -19.8276 0.205165
ltoes -6.30341
590
root 9.15734 16.7988 41.2306 175.072 -53.7236 -172.063
lowerback -0.608469 0.627012 5.87332
upperback 4.41717 0.555696 -0.348102
thorax 4.99848 0.480041 -3.63049
lowerneck -9.23775 0.270452 0.574852
upperneck 6.39022 -0.645517 8.6772
head 3.81877 0.0123488 2.78814
rclavicle 1.31198e-014 -3.02153e-014
rhumerus -41.5872 6.71706 -86.2019
rradius 42.1025
rwrist -0.526267
rhand -11.1168 -2.35135
rfingers 7.12502
rthumb 14.908 -31.7949
lclavicle 1.31198e-014 -3.02153e-014
lhumerus -32.5431 -14.6854 82.8907
lradius 32.6022
lwrist 7.83621
lhand -6.62348 -9.89622
lfingers 7.12502
lthumb 19.2329 19.1727
rfemur -9.86054 -5.89351 25.5012
rtibia 32.4421
rfoot -25.0374 -17.9241
rtoes -3.17504
lfemur -10.2415 3.0748 -13.9123
ltibia 29.5144
lfoot -19.8233 0.195298
ltoes -6.2612
591
root 9.15561 16.7997 41.2307 175.126 -53.7228 -172.104
lowerback -0.647061 0.618662 5.82078
upperback 4.4218 0.543569 -0.342468
thorax 5.02283 0.472619 -3.59544
lowerneck -9.18994 0.273606 0.658048
upperneck 6.36954 -0.640338 8.59531
head 3.79955 0.0123073 2.74297
rclavicle 1.17283e-013 -2.06736e-014
rhumerus -41.5661 6.83535 -86.26
rradius 42.0654
rwrist -0.632526
rhand -11.1004 -2.37414
rfingers 7.12502
rthumb 14.9237 -31.8165
lclavicle 1.17283e-013 -2.06736e-014
lhumerus -32.5746 -14.6114 82.8913
lradius 32.641
lwrist 7.85163
lhand -6.457 -9.97164
lfingers 7.12502
lthumb 19.393 19.0813
rfemur -9.87717 -5.85518 25.4744
rtibia 32.4434
rfoot -25.0667 -17.9394
rtoes -3.08892
lfemur -10.2597 3.064 -13.9463
ltibia 29.5109
lfoot -19.8038 0.225387
ltoes -6.37944
592
root 9.15312 16.7988 41.2314 175.178 -53.7027 -172.163
lowerback -0.65648 0.633133 5.80726
upperback 4.42364 0.563557 -0.358669
thorax 5.03224 0.482773 -3.60364
lowerneck -9.23329 0.263983 0.571847
upperneck 6.72062 -0.697503 8.95661
head 3.5543 0.0250344 2.59441
rclavicle 6.33129e-014 -1.82882e-014
rhumerus -41.5721 6.73156 -86.2471
rradius 42.0586
rwrist -0.610177
rhand -11.1182 -2.32002
rfingers 7.12502
rthumb 14.9066 -31.7637
lclavicle 6.33129e-014 -1.82882e-014
lhumerus -32.5257 -14.512 82.8882
lradius 32.5623
lwrist 7.78381
lhand -6.41812 -9.97955
lfingers 7.12502
lthumb 19.4304 19.0696
rfemur -9.88716 -5.91218 25.4193
rtibia 32.4574
rfoot -25.0496 -17.8654
rtoes -3.17176
lfemur -10.2416 3.05745 -13.9956
ltibia 29.497
lfoot -19.8295 0.273203
ltoes -6.38782
593
root 9.15259 16.7989 41.2313 175.161 -53.6705 -172.118
lowerback -0.67302 0.636682 5.81309
upperback 4.41883 0.566658 -0.342454
thorax 5.03684 0.484264 -3.58973
lowerneck -9.0739 0.285039 0.666619
upperneck 6.2897 -0.617206 8.6073
head 3.74731 0.0192444 2.74337
rclavicle -1.07841e-013 9.14409e-015
rhumerus -41.5886 6.71626 -86.258
rradius 42.0629
rwrist -0.602181
rhand -11.0871 -2.33138
rfingers 7.12502
rthumb 14.9366 -31.7728
lclavicle -1.07841e-013 9.14409e-015
lhumerus -32.5439 -14.4765 82.9305
lradius 32.5807
lwrist 7.87001
lhand -6.60159 -9.80368
lfingers 7.12502
lthumb 19.254 19.2632
rfemur -9.90672 -5.88621 25.4582
rtibia 32.4585
rfoot -25.0224 -17.8876
rtoes -3.22916
lfemur -10.2538 3.09136 -13.96
ltibia 29.498
lfoot -19.8367 0.237214
ltoes -6.16461
594
root 9.15184 16.7989 41.2307 175.164 -53.6751 -172.126
lowerback -0.64827 0.624459 5.80648
upperback 4.41071 0.553105 -0.352974
thorax 5.01264 0.476738 -3.59789
lowerneck -9.14034 0.284484 0.521404
upperneck 6.38131 -0.63099 8.80478
head 3.79822 0.019509 2.84212
rclavicle -4.67144e-014 -1.55052e-014
rhumerus -41.6152 6.66872 -86.2937
rradius 42.062
rwrist -0.572223
rhand -11.095 -2.31599
rfingers 7.12502
rthumb 14.9289 -31.758
lclavicle -4.67144e-014 -1.55052e-014
lhumerus -32.6107 -14.4723 82.9306
lradius 32.6456
lwrist 7.91674
lhand -6.58973 -9.7741
lfingers 7.12502
lthumb 19.2654 19.2916
rfemur -9.9003 -5.88696 25.4506
rtibia 32.4604
rfoot -25.0306 -17.8918
rtoes -3.25953
lfemur -10.2459 3.07952 -13.9632
ltibia 29.4985
lfoot -19.8287 0.243201
ltoes -6.33932
